<?xml version="1.0" encoding="UTF-8"?>
<svg xmlns="http://www.w3.org/2000/svg" version="1.1" viewBox="0 0 229 42">
  <!-- Generator: Adobe Illustrator 28.7.4, SVG Export Plug-In . SVG Version: 1.2.0 Build 166)  -->
  <g>
    <g id="Layer_1">
      <path d="M22.62,31.97c0,2.66-.49,4.96-2.36,6.85-1.88,1.9-3.69,2.86-6.34,2.86h-1.37c-2.66,0-4.93-.96-6.83-2.86-1.9-1.9-2.84-4.19-2.84-6.85v-11.01c0-2.66.94-5.09,2.85-6.99,1.9-1.9,4.17-3,6.83-3h1.37c2.65,0,4.47,1.1,6.34,3,1.88,1.9,2.36,4.33,2.36,6.99v11.01h0ZM18.23,32.91v-11.93c0-1.4-.14-2.86-1.12-3.86-.98-1.01-1.82-1.76-3.2-1.76h-1.36c-1.39,0-2.69.75-3.69,1.76-1,1-1.6,2.46-1.6,3.86v10.98c0,1.4.6,2.72,1.6,3.72,1,1.01,2.3,1.62,3.69,1.62h1.36c1.39,0,2.23-.61,3.2-1.62.98-1,1.12-2.32,1.12-3.72"/>
      <path d="M42.36,15.36h-5.71c-1.41,0-2.68.75-3.69,1.76-1.01,1.01-1.58,2.47-1.58,3.87v20.69h-4.39v-20.72c0-2.66.91-5.09,2.83-6.99,1.91-1.9,4.16-3,6.82-3h5.71v4.39Z"/>
      <path d="M77.28,13.97c-1.91-1.9-3.71-3-6.37-3h-8.81v4.39h8.81c1.4,0,2.23.75,3.23,1.75,1,1.01,1.12,2.46,1.12,3.86v.97h-6.52c-2.66,0-4.94,1.14-6.84,3.02-1.9,1.88-2.85,4.25-2.85,6.91,0,2.03.56,3.89,1.67,5.48l-4.55-.31c-1.41,0-2.57-.49-3.57-1.5-1.01-1.01-1.46-2.2-1.46-3.62V0h-4.39v31.95c0,2.67.79,4.96,2.71,6.87,1.91,1.91,4.04,2.87,6.71,2.87h23.49v-20.73c0-2.66-.47-5.09-2.38-6.99M75.27,37.3h-6.5c-1.4,0-2.61-.61-3.61-1.61-1.01-1-1.51-2.26-1.51-3.65s.5-2.92,1.51-3.9c1-.98,2.21-1.8,3.61-1.8h6.5v10.97Z"/>
      <path d="M105.99,41.69h-4.39v-20.69c0-1.41-.79-2.87-1.78-3.87-.99-1.01-2.47-1.76-3.86-1.76h-7.52v26.33h-4.39V10.97h11.91c2.65,0,5.11,1.1,7,3,1.9,1.9,3.02,4.33,3.02,6.99v20.72h0Z"/>
      <path d="M130.12,41.69h-11.32c-2.66,0-5.41-.96-7.3-2.86-1.9-1.9-3.31-4.19-3.31-6.85v-11.01c0-2.66,1.41-5.09,3.3-6.99,1.89-1.9,4.64-3,7.28-3h6.97V0h4.39v41.69h0ZM125.73,37.3V15.36h-6.93c-1.39,0-2.07.75-3.06,1.76-.99,1-.98,2.46-.98,3.86v10.98c0,1.4-.02,2.72.98,3.72.99,1.01,1.67,1.62,3.06,1.62h6.93Z"/>
      <path d="M154.25,31.97c0,2.66-.68,4.96-2.56,6.85-1.87,1.9-3.89,2.86-6.54,2.86h-1.36c-2.65,0-4.74-.96-6.63-2.86-1.89-1.9-2.65-4.19-2.65-6.85v-11.01c0-2.66.76-5.09,2.65-6.99,1.9-1.9,3.98-3,6.63-3h1.36c2.66,0,4.67,1.1,6.54,3,1.88,1.9,2.56,4.33,2.56,6.99v11.01ZM149.86,32.91v-11.93c0-1.4-.33-2.86-1.31-3.86-.98-1.01-2.01-1.76-3.4-1.76h-1.35c-1.39,0-2.5.75-3.5,1.76-1,1-1.4,2.46-1.4,3.86v10.98c0,1.4.41,2.72,1.4,3.72,1,1.01,2.11,1.62,3.5,1.62h1.35c1.39,0,2.42-.61,3.4-1.62.98-1,1.31-2.32,1.31-3.72"/>
      <path d="M193.74,10.97v20.97c0,1.41-.45,2.73-1.43,3.73-.98,1.01-2.12,1.62-3.52,1.62h-1.35c-1.39,0-2.38-.61-3.39-1.62-.99-1-1.29-2.32-1.29-3.73V10.97h-14.87c-2.66,0-4.71,1.1-6.62,3-1.92,1.9-2.63,4.33-2.63,6.99v20.73h4.39v-20.7c0-1.41.37-2.87,1.39-3.87,1-1.01,2.07-1.76,3.48-1.76h10.49v16.61c0,2.66.64,4.95,2.54,6.85,1.9,1.9,3.87,2.86,6.52,2.86h1.37c2.65,0,4.77-.96,6.66-2.86,1.87-1.9,2.67-4.19,2.67-6.85V10.97h-4.39Z"/>
      <path d="M206.91,8.77h-4.39v-4.39h4.39v4.39ZM206.91,41.69h-4.39V10.97h4.39v30.71Z"/>
      <path d="M228.85,41.69h-19.75v-4.74c0-2.4.96-4.5,2.1-6.33.92-1.41,2.56-2.83,4.54-4.27,1.82-1.29,3.76-2.83,5.63-4.12,1.86-1.29,2.89-2.47,2.89-6.86h-12.96v-4.39h17.55v5.02c0,2.55-.55,4.75-1.65,6.61-.91,1.48-2.32,2.96-4.22,4.44-1.9,1.33-3.79,2.78-5.68,4.1-1.88,1.33-2.83,3.96-2.83,6.15h14.37v4.39h0Z"/>
    </g>
  </g>
</svg>